<svg xmlns="http://www.w3.org/2000/svg" viewBox="0 0 820 220" role="img" aria-labelledby="title">
  <title id="title">Mpangi Pharma</title>
  <defs>
    <linearGradient id="b" x1="0" y1="0" x2="1" y2="1"><stop stop-color="#0b3b8f"/><stop offset="1" stop-color="#16a6db"/></linearGradient>
    <linearGradient id="g" x1="0" y1="0" x2="1" y2="1"><stop stop-color="#14b8a6"/><stop offset="1" stop-color="#059669"/></linearGradient>
  </defs>
  <g transform="translate(8 8) scale(.39)">
    <rect width="512" height="512" rx="116" fill="#fff"/>
    <path d="M246 57c-92 5-168 82-168 178 0 95 73 173 166 180-72-42-112-109-112-181 0-71 40-137 114-177Z" fill="url(#b)"/>
    <g fill="#fff"><path d="m118 123 27-22 29 17-5 35-34 7-21-25Z"/><path d="m87 186 28-18 28 20-9 34-35 3-17-27Z"/><path d="m83 263 30-13 25 24-14 32-35-2-13-30Z"/><path d="m109 337 32-8 21 28-19 29-34-8-9-32Z"/></g>
    <rect x="202" y="151" width="156" height="156" rx="38" fill="url(#b)"/>
    <path d="M258 176h44v42h42v44h-42v42h-44v-42h-42v-44h42Z" fill="#fff"/>
    <g transform="rotate(-45 320 300)"><rect x="286" y="236" width="70" height="142" rx="35" fill="#fff"/><path d="M286 307h70v36c0 19-16 35-35 35s-35-16 35-35Z" fill="url(#g)"/></g>
    <path d="M302 358c44-7 75-33 95-72 4 42-15 87-71 108-23 9-49 9-76 1 24-4 40-16 52-37Z" fill="url(#g)"/>
  </g>
  <text x="220" y="108" font-family="Georgia, serif" font-size="62" font-weight="700" fill="#0b3b8f">Mpangi_</text>
  <text x="456" y="108" font-family="Georgia, serif" font-size="62" font-weight="700" fill="#059669">Pharma</text>
  <text x="224" y="156" font-family="Arial, sans-serif" font-size="20" letter-spacing="7" fill="#7c93b7">GESTION MULTI-PHARMACIE</text>
</svg>
