<svg xmlns="http://www.w3.org/2000/svg" viewBox="0 0 512 512" role="img" aria-labelledby="title desc">
  <title id="title">M Pharma</title>
  <desc id="desc">Logo technologique et médical de M Pharma</desc>
  <defs>
    <linearGradient id="blue" x1="0" y1="0" x2="1" y2="1">
      <stop offset="0" stop-color="#0b3b8f"/>
      <stop offset="1" stop-color="#16a6db"/>
    </linearGradient>
    <linearGradient id="green" x1="0" y1="0" x2="1" y2="1">
      <stop offset="0" stop-color="#14b8a6"/>
      <stop offset="1" stop-color="#059669"/>
    </linearGradient>
  </defs>
  <rect width="512" height="512" rx="116" fill="#fff"/>
  <path d="M246 57c-92 5-168 82-168 178 0 95 73 173 166 180-72-42-112-109-112-181 0-71 40-137 114-177Z" fill="url(#blue)"/>
  <g fill="#fff">
    <path d="m118 123 27-22 29 17-5 35-34 7-21-25Z"/>
    <path d="m87 186 28-18 28 20-9 34-35 3-17-27Z"/>
    <path d="m83 263 30-13 25 24-14 32-35-2-13-30Z"/>
    <path d="m109 337 32-8 21 28-19 29-34-8-9-32Z"/>
    <path d="m163 87 30-12 25 24-13 32-36 1-14-30Z"/>
    <path d="m148 186 33-8 20 29-19 29-35-8-9-31Z"/>
    <path d="m144 270 34-4 17 31-23 27-33-12-5-32Z"/>
  </g>
  <g fill="url(#blue)">
    <path d="m303 72 28-12 26 21-10 33-34 3-18-28Z"/>
    <path d="m380 68 31-8 23 25-15 31-34-3-13-30Z"/>
    <path d="m345 139 31-8 23 25-15 31-34-3-13-30Z"/>
    <path d="m409 169 31-8 23 25-15 31-34-3-13-30Z" opacity=".86"/>
    <path d="m351 261 31-8 23 25-15 31-34-3-13-30Z"/>
  </g>
  <rect x="202" y="151" width="156" height="156" rx="38" fill="url(#blue)"/>
  <path d="M258 176h44v42h42v44h-42v42h-44v-42h-42v-44h42Z" fill="#fff"/>
  <g transform="rotate(-45 320 300)">
    <rect x="286" y="236" width="70" height="142" rx="35" fill="#fff"/>
    <path d="M286 307h70v36c0 19-16 35-35 35s-35-16-35-35Z" fill="url(#green)"/>
  </g>
  <path d="M302 358c44-7 75-33 95-72 4 42-15 87-71 108-23 9-49 9-76 1 24-4 40-16 52-37Z" fill="url(#green)"/>
</svg>
